<svg width="30" height="27" viewBox="0 0 30 27" fill="none" xmlns="http://www.w3.org/2000/svg">
<path d="M14.9629 1.10851L1.11309 14.9013C-0.37103 16.3794 -0.37103 18.7737 1.11309 20.2518L5.86227 24.9814C6.57465 25.6908 7.5423 26.087 8.5515 26.087H14.8026H15.3606H28.1003C29.1511 26.087 30 25.2415 30 24.1951C30 23.1487 29.1511 22.3032 28.1003 22.3032H20.7332L28.4921 14.5821C29.9763 13.1041 29.9763 10.7097 28.4921 9.23168L20.3413 1.10851C18.8572 -0.369504 16.453 -0.369504 14.9688 1.10851H14.9629ZM15.3606 22.3092H14.8026H8.54556L3.79638 17.5795L11.1992 10.2072L19.3559 18.3303L15.3606 22.3092Z" fill="#ffffff"/>
</svg>
